<svg width="365" height="81" fill="none" xmlns="http://www.w3.org/2000/svg"><path d="M120.366 11.58c7.17-2.462 7.763-11.58.653-11.58-2.009 0-4.298 1.388-5.905 4.225L105.443 21a13.067 13.067 0 01-1.375 2.026c-2.471-3.434-1.748-8.56 1.717-10.81l-1.346-1.813c-7.491 4.812-5.292 18.722 7.21 18.722 10.645-.01 15.586-12.917 8.717-17.547zm-8.827 14.76a10.212 10.212 0 01-5.152-1.246 17.97 17.97 0 001.788-2.563l6.025-10.506 1.004.101c8.315 1.773 4.991 14.214-3.665 14.214zm3.846-16.422l2.882-4.994c2.611-4.539 5.945-1.875 4.158 1.52-1.376 2.603-3.405 3.403-7.04 3.474z" fill="#fff"/><path d="M260.305 19.248l-.241.274a16.73 16.73 0 01-6.528 5.065c.583-.932 1.004-1.945 1.476-2.705l3.947-6.828c3.334-5.713-2.059-7.628-5.704-4.336l.723-1.246h-3.575l-5.584 9.776-.241.274a7.667 7.667 0 01-2.426 1.887 7.615 7.615 0 01-2.966.777l3.364-5.855c2.169-3.779.171-7.345-3.194-7.345-2.751 0-4.88 1.104-6.939 4.71l-1.757 3.04-1.466 2.512-.191.223c-2.581 3.04-5.081 5.41-6.668 5.41-.793 0-1.235-.557-.412-2.026l5.152-9.118c1.546-2.735.07-4.71-1.928-4.71-1.547 0-3.194.86-5.021 2.735l5.704-10.02h-3.575l-9.912 17.506-.201.233a22.165 22.165 0 01-4.268 3.921c1.135-3.434.894-8.702 3.093-13.312l-2.681-1.459c-1.476 2.027-4.71 6.758-7.934 10.567l-.241.273c-2.58 3.04-5.081 5.41-6.668 5.41-.793 0-1.235-.557-.411-2.026l3.575-6.311c1.235-2.189.652-3.465-.512-4.883l-2.009-2.422a1.428 1.428 0 01.06-2.026l.111-.091-1.858-2.026c-2.008 1.833-2.199 3.88-.924 5.541l.301.416c-1.576 2.249-3.705 5.298-6.025 8.104l-.241.274c-2.581 3.039-5.875 5.41-8.385 5.41-2.199 0-3.505-1.388-1.858-4.296l.341-.628c2.3 1.013 6.628.517 9.31-4.154l.512-.901c1.928-3.323.07-5.825-2.852-5.825-1.38.01-2.73.4-3.906 1.128a7.604 7.604 0 00-2.762 3.005l-3.485 6.078-.211.243a7.607 7.607 0 01-2.424 1.893 7.554 7.554 0 01-2.969.772l3.365-5.856a8.718 8.718 0 001.345-4.143 3.065 3.065 0 00-.749-2.2 3.012 3.012 0 00-2.073-1.022h-.421a4.172 4.172 0 00-2.34.8l4.539-7.932h-3.645l-10.003 17.445-.19.213c-2.581 3.04-5.082 5.41-6.668 5.41-.794 0-1.236-.557-.412-2.026l3.575-6.312c1.235-2.188.653-3.464-.512-4.883l-2.009-2.42a1.41 1.41 0 01-.391-1.029 1.414 1.414 0 01.462-.998l.14-.112-1.858-2.026c-2.008 1.834-2.199 3.88-.923 5.542l.311.415c-1.577 2.25-3.716 5.299-6.025 8.105l-.242.273c-2.58 3.04-5.081 5.41-6.668 5.41-.793 0-1.235-.557-.411-2.026l5.774-10.191h-2.008a3.752 3.752 0 00-1.2-2.5 3.684 3.684 0 00-2.576-.975c-1.928 0-4.6 1.53-6.116 4.163l-5.021 8.733c-1.517 2.675-.442 5.126 2.44 5.126 1.446 0 3.234-.932 4.951-2.36.171 1.388 1.275 2.36 3.093 2.36 2.952 0 6.357-3.191 9.309-6.656 1.717-2.026 3.013-3.809 5.905-7.73l.482.588a1.77 1.77 0 01.211 2.026l-3.776 6.616c-1.506 2.674-.442 5.126 2.44 5.126 2.069 0 4.359-1.57 6.568-3.698 0 2.462 1.817 3.85 4.127 3.85a7.851 7.851 0 003.392-.976 7.911 7.911 0 002.633-2.367c.265.02.53.02.794 0a10.3 10.3 0 004.74-1.419c-.191 2.604 1.687 4.58 4.84 4.58 4.017 0 8.034-3.192 11.047-6.656 1.717-2.027 3.012-3.81 5.904-7.73l.482.587a1.774 1.774 0 01.211 2.026l-3.776 6.616c-1.516 2.674-.441 5.126 2.441 5.126 2.882 0 6.356-3.191 9.309-6.656 2.008-2.36 3.816-4.883 5.081-6.585-1.406 3.748-.653 10.465-4.017 10.465a1.998 1.998 0 01-1.031-.414 2.027 2.027 0 01-.656-.903l-2.179 1.175c.229.861.742 1.618 1.454 2.146.711.528 1.58.797 2.463.762.341 0 .672 0 1.004-.071h.1a12.588 12.588 0 005.493-2.39l-1.225 2.147h3.605l5.423-9.533c5.503-6.97 7.933-6.079 6.387-3.394l-4.64 8.105c-1.516 2.664-.441 5.126 2.441 5.126 2.078 0 4.368-1.58 6.577-3.718 0 4.6 6.317 5.49 10.193.557h.794a9.657 9.657 0 003.826-.952l-6.508 11.387h3.605l10.685-18.752c4.017-5.481 6.498-3.465 5.564-1.834l-5.393 9.432a1.381 1.381 0 01-1.29.906c-.282 0-.556-.087-.787-.249a1.394 1.394 0 01-.504-.657l-2.008 1.013c.229.86.742 1.617 1.453 2.146.712.528 1.58.796 2.463.761h.211c5.192-.101 8.586-3.221 11.509-6.656a2.249 2.249 0 00-1.426-1.165zm-81.343-5.065c2.009-3.566 5.704-2.978 3.576.76l-.513.901c-1.717 2.949-4.017 2.878-5.362 2.391l2.299-4.052zm-45.802 5.683c-2.169 3.435-4.298 5.066-5.774 5.066-.794 0-1.236-.557-.412-2.026l5.021-8.774c1.928-3.363 5.734-2.492 4.017.76l-2.852 4.974zm26.903 4.924a1.319 1.319 0 01-.945-.327 1.34 1.34 0 01-.451-.899.878.878 0 010-.162 4.15 4.15 0 01.623-1.874l1.205-2.28a5.35 5.35 0 00.735 2.116 5.304 5.304 0 001.534 1.623c-.268.5-.658.923-1.131 1.231a3.337 3.337 0 01-1.58.531l.01.04zm3.726-3.515a3.88 3.88 0 01-1.155-1.444 3.93 3.93 0 01-.362-1.819c0-2.563 2.471-6.757 4.499-6.757a1.355 1.355 0 01.97.407 1.393 1.393 0 01.396.981.991.991 0 010 .172 4.326 4.326 0 01-.683 2.148l-3.665 6.312zm73.388-1.804h-.18a2.11 2.11 0 00-1.486.633c-.393.4-.613.941-.613 1.505.006.428.124.847.341 1.215v.071c-1.687 2.908-5.774 2.36-3.645-1.387l4.398-7.71c2.511-4.295 5.945-2.604 3.776 1.145l-2.591 4.528zM0 74.218l5.734-5.795 5.744 5.795-5.744 5.815L0 74.218zm353.486 0l5.744-5.785 5.735 5.795-5.714 5.805-5.765-5.815z" fill="#fff"/></svg>