<svg width="293" height="45" fill="none" xmlns="http://www.w3.org/2000/svg"><path d="M20.885 17.902a4.532 4.532 0 01-.43 1.953 4.493 4.493 0 01-1.227 1.572 5.305 5.305 0 011.667 3.738V39.45a4.701 4.701 0 01-1.358 3.25 4.62 4.62 0 01-3.221 1.37H.6V.395h15.706a4.58 4.58 0 013.232 1.359 4.66 4.66 0 011.347 3.26v12.887zm-7.482-10.02H8.021V18.43h5.382V7.883zm0 18.033H8.021v10.607h5.382V25.915zM49.455.396a4.58 4.58 0 013.232 1.359 4.66 4.66 0 011.347 3.26V39.46a4.701 4.701 0 01-1.358 3.25 4.62 4.62 0 01-3.221 1.37H38.308a4.6 4.6 0 01-3.226-1.365 4.68 4.68 0 01-1.353-3.255V5.016c0-1.226.482-2.4 1.341-3.267A4.56 4.56 0 0138.308.396h11.147zm-2.912 7.487H41.17v28.64h5.383l-.01-28.64zm33.651 36.186l-3.012-18.154H74.34V44.07h-7.422V.396h15.706a4.515 4.515 0 013.208 1.366c.42.429.752.937.977 1.495.225.558.338 1.156.335 1.759v16.35a4.547 4.547 0 01-.72 2.45 4.49 4.49 0 01-1.922 1.664l3.093 18.59h-7.4zm-.492-36.186H74.32v10.546h5.382V7.883zM114.77.396a4.58 4.58 0 013.232 1.359 4.658 4.658 0 011.347 3.26V39.46a4.7 4.7 0 01-1.359 3.25 4.619 4.619 0 01-3.22 1.37h-11.127a4.602 4.602 0 01-3.227-1.365 4.683 4.683 0 01-1.352-3.255V5.016c0-1.215.474-2.381 1.32-3.246a4.558 4.558 0 013.199-1.374h11.187zm-2.913 7.487h-5.382v28.64h5.382V7.882zM147.919.396a4.577 4.577 0 013.232 1.359 4.658 4.658 0 011.347 3.26V39.46a4.7 4.7 0 01-1.358 3.25 4.621 4.621 0 01-3.221 1.37h-15.706V.396h15.706zm-2.902 7.487h-5.383v28.64h5.383V7.882zM165.734.396h7.421v43.673h-7.421V.396zm40.45 0V44.07h-7.421l-5.443-19.077V44.07h-7.391V.396h7.361l5.443 17.901V.396h7.451zm28.57 18.033a4.577 4.577 0 013.232 1.359 4.658 4.658 0 011.347 3.26V39.46a4.7 4.7 0 01-1.358 3.25 4.62 4.62 0 01-3.221 1.37h-11.127a4.6 4.6 0 01-3.213-1.372 4.685 4.685 0 01-1.346-3.248v-8.986l7.421-1.742v7.8h5.383V25.915h-8.225a4.534 4.534 0 01-3.233-1.343 4.603 4.603 0 01-.994-1.493 4.655 4.655 0 01-.352-1.763v-16.3c0-1.222.48-2.394 1.334-3.26a4.56 4.56 0 013.225-1.36h11.147a4.577 4.577 0 013.232 1.359 4.663 4.663 0 011.348 3.26v8.835l-7.482 1.752v-7.72h-5.383V18.43h8.265zm31.734 3.748l6.929 21.903h-7.482l-.06-.254-5.563-17.9h-.683v18.143h-7.421V.396h7.421v18.033h.612L265.935.396h7.542l-6.989 21.781zM285.568.396h7.421v43.673h-7.421V.396z" fill="#fff"/></svg>