<svg xmlns="http://www.w3.org/2000/svg">
   <symbol id="arrow-down" viewBox="0 0 16 16">
      <g clip-path="url(#clip0_0_187)">
         <path fill-rule="evenodd" clip-rule="evenodd" d="M8.00005 9.58579L13.2929 4.29289L14.7072 5.70711L8.00005 12.4142L1.29294 5.70711L2.70715 4.29289L8.00005 9.58579Z" fill="#242424"/>
      </g>
   </symbol>
   <symbol id="arrow-left" viewBox="0 0 16 16">
      <g clip-path="url(#clip0_0_177)">
         <path fill-rule="evenodd" clip-rule="evenodd" d="M6.41426 8L11.7072 13.2929L10.2929 14.7071L3.58583 8L10.2929 1.29289L11.7072 2.70711L6.41426 8Z" fill="#242424"/>
      </g>
   </symbol>
   <symbol id="arrow-right" viewBox="0 0 16 16">
      <g>
         <path fill-rule="evenodd" clip-rule="evenodd" d="M9.58574 8L4.29285 2.70711L5.70706 1.29289L12.4142 8L5.70706 14.7071L4.29285 13.2929L9.58574 8Z" fill="#242424"/>
      </g>
   </symbol>
   <symbol id="arrow-tail-left" viewBox="0 0 16 16">
      <g clip-path="url(#clip0_0_778)">
         <path fill-rule="evenodd" clip-rule="evenodd" d="M4.41421 9L8.70711 13.2929L7.29289 14.7071L0.585787 8L7.29289 1.29289L8.70711 2.70711L4.41421 7L16 7L16 9L4.41421 9Z" fill="#242424"/>
      </g>
   </symbol>
   <symbol id="arrow-tail-right" viewBox="0 0 16 16">
      <g>
         <path fill-rule="evenodd" clip-rule="evenodd" d="M11.5858 7L7.29289 2.70711L8.70711 1.29289L15.4142 8L8.70711 14.7071L7.29289 13.2929L11.5858 9H0V7H11.5858Z" fill="#242424"/>
      </g>
   </symbol>
   <symbol id="arrow-top" viewBox="0 0 16 16">
      <g clip-path="url(#clip0_0_185)">
         <path fill-rule="evenodd" clip-rule="evenodd" d="M7.99995 6.41421L2.70706 11.7071L1.29285 10.2929L7.99995 3.58579L14.7071 10.2929L13.2928 11.7071L7.99995 6.41421Z" fill="#242424"/>
      </g>
   </symbol>
   <symbol id="bullet" viewBox="0 0 16 16">
      <g>
         <path d="M8 2L14 8L8 14L2 8L8 2Z"/>
      </g>
   </symbol>
   <symbol id="cards" viewBox="0 0 16 16">
      <g clip-path="url(#clip0_0_1096)">
         <path fill-rule="evenodd" clip-rule="evenodd" d="M0 2C0 0.895431 0.895431 0 2 0C3.10457 0 4 0.895431 4 2C4 3.10457 3.10457 4 2 4C0.895431 4 0 3.10457 0 2ZM6 2C6 0.895431 6.89543 0 8 0C9.10457 0 10 0.895431 10 2C10 3.10457 9.10457 4 8 4C6.89543 4 6 3.10457 6 2ZM16 2C16 0.895431 15.1046 0 14 0C12.8954 0 12 0.895431 12 2C12 3.10457 12.8954 4 14 4C15.1046 4 16 3.10457 16 2ZM0 8C0 6.89543 0.895431 6 2 6C3.10457 6 4 6.89543 4 8C4 9.10457 3.10457 10 2 10C0.895431 10 0 9.10457 0 8ZM10 8C10 6.89543 9.10457 6 8 6C6.89543 6 6 6.89543 6 8C6 9.10457 6.89543 10 8 10C9.10457 10 10 9.10457 10 8ZM12 8C12 6.89543 12.8954 6 14 6C15.1046 6 16 6.89543 16 8C16 9.10457 15.1046 10 14 10C12.8954 10 12 9.10457 12 8ZM4 14C4 12.8954 3.10457 12 2 12C0.895431 12 0 12.8954 0 14C0 15.1046 0.895431 16 2 16C3.10457 16 4 15.1046 4 14ZM6 14C6 12.8954 6.89543 12 8 12C9.10457 12 10 12.8954 10 14C10 15.1046 9.10457 16 8 16C6.89543 16 6 15.1046 6 14ZM16 14C16 12.8954 15.1046 12 14 12C12.8954 12 12 12.8954 12 14C12 15.1046 12.8954 16 14 16C15.1046 16 16 15.1046 16 14Z" fill="#242424"/>
      </g>
   </symbol>
   <symbol id="cart" viewBox="0 0 16 16">
      <g clip-path="url(#clip0_0_392)">
         <path fill-rule="evenodd" clip-rule="evenodd" d="M3.09068 6L3.5759 0.90519L3.66211 0H4.5714H11.4285H12.3378L12.424 0.905191L12.9093 6H14.5H15.6328L15.4922 7.12403L14.4922 15.124L14.3828 16H13.5H2.49997H1.61719L1.50769 15.124L0.507692 7.12403L0.367188 6H1.49997H3.09068ZM5.09973 6H10.9002L10.5193 2H5.48068L5.09973 6ZM3.38275 14L2.63275 8H13.3672L12.6172 14H3.38275ZM8.49997 9.5V12.5H10.5V9.5H8.49997ZM5.49997 12.5L5.49997 9.5H7.49997L7.49997 12.5H5.49997Z"/>
      </g>
   </symbol>
   <symbol id="cross-small" viewBox="0 0 16 16">
      <g>
         <path fill-rule="evenodd" clip-rule="evenodd" d="M7.99995 9.41421L11.5428 12.9571L12.9571 11.5429L9.41417 8L12.9571 4.45711L11.5428 3.04289L7.99995 6.58579L4.45706 3.04289L3.04285 4.45711L6.58574 8L3.04285 11.5429L4.45706 12.9571L7.99995 9.41421Z" fill="#242424"/>
      </g>
   </symbol>
   <symbol id="cross" viewBox="0 0 16 16">
      <g>
         <path fill-rule="evenodd" clip-rule="evenodd" d="M7.99995 9.41421L13.2928 14.7071L14.7071 13.2929L9.41417 8L14.7071 2.70711L13.2928 1.29289L7.99995 6.58579L2.70706 1.29289L1.29285 2.70711L6.58574 8L1.29285 13.2929L2.70706 14.7071L7.99995 9.41421Z" fill="#242424"/>
      </g>
   </symbol>
   <symbol id="facebook" viewBox="0 0 16 16">
      <g>
         <path d="M11.6987 1.00291L9.77991 1C7.62416 1 6.23102 2.35233 6.23102 4.44542V6.03399H4.30172C4.135 6.03399 4 6.16187 4 6.3196V8.62126C4 8.77899 4.13516 8.90672 4.30172 8.90672H6.23102V14.7145C6.23102 14.8723 6.36603 15 6.53274 15H9.04993C9.21665 15 9.35165 14.8721 9.35165 14.7145V8.90672H11.6075C11.7742 8.90672 11.9092 8.77899 11.9092 8.62126L11.9101 6.3196C11.9101 6.24386 11.8782 6.17133 11.8217 6.11773C11.7652 6.06414 11.6883 6.03399 11.6082 6.03399H9.35165V4.68734C9.35165 4.04008 9.51467 3.71151 10.4058 3.71151L11.6984 3.71107C11.865 3.71107 12 3.58319 12 3.4256V1.28838C12 1.13094 11.8652 1.0032 11.6987 1.00291Z" fill="#242424"/>
      </g>
   </symbol>
   <symbol id="heart-empty" viewBox="0 0 16 16">
      <g>
         <path fill-rule="evenodd" clip-rule="evenodd" d="M13.4269 6.19138L13.4555 6.16285C14.1815 5.4393 14.1815 4.26903 13.4555 3.54548C12.7257 2.81817 11.5396 2.81817 10.8098 3.54548L8 6.34574L5.19017 3.54548C4.46037 2.81817 3.27432 2.81817 2.54452 3.54548C1.81849 4.26903 1.81849 5.4393 2.54452 6.16285L2.57314 6.19138L8 12.0554L13.4269 6.19138ZM8 15L1.13272 7.57948C-0.377573 6.07433 -0.377573 3.63401 1.13272 2.12886C2.64301 0.623714 5.09168 0.623713 6.60197 2.12886L8 3.52213L9.39803 2.12886C10.9083 0.623713 13.357 0.623714 14.8673 2.12886C16.3776 3.63401 16.3776 6.07433 14.8673 7.57948L8 15Z" fill="#242424"/>
      </g>
   </symbol>
   <symbol id="heart-full" viewBox="0 0 16 16">
      <g clip-path="url(#clip0_0_1206)">
         <path fill-rule="evenodd" clip-rule="evenodd" d="M14.8673 2.12886C16.3776 3.63401 16.3776 6.07433 14.8673 7.57948L8 15L1.13272 7.57948C-0.377573 6.07433 -0.377573 3.63401 1.13272 2.12886C2.64301 0.623714 5.09168 0.623713 6.60197 2.12886L8 3.52213L9.39803 2.12886C10.9083 0.623713 13.357 0.623714 14.8673 2.12886Z" fill="#242424"/>
      </g>
   </symbol>
   <symbol id="info" viewBox="0 0 16 16">
      <g>
         <path fill-rule="evenodd" clip-rule="evenodd" d="M8 14C11.3137 14 14 11.3137 14 8C14 4.68629 11.3137 2 8 2C4.68629 2 2 4.68629 2 8C2 11.3137 4.68629 14 8 14ZM9.27273 5.27273C9.27273 5.97564 8.70291 6.54545 8 6.54545C7.29709 6.54545 6.72727 5.97564 6.72727 5.27273C6.72727 4.56982 7.29709 4 8 4C8.70291 4 9.27273 4.56982 9.27273 5.27273ZM9.27273 7.5V11H6.72727V7.5H9.27273Z" fill="#242424"/>
      </g>
   </symbol>
   <symbol id="instagram" viewBox="0 0 16 16">
      <g clip-path="url(#clip0_0_655)">
         <path fill-rule="evenodd" clip-rule="evenodd" d="M12 2H4C2.89543 2 2 2.89543 2 4V12C2 13.1046 2.89543 14 4 14H12C13.1046 14 14 13.1046 14 12V4C14 2.89543 13.1046 2 12 2ZM4 0C1.79086 0 0 1.79086 0 4V12C0 14.2091 1.79086 16 4 16H12C14.2091 16 16 14.2091 16 12V4C16 1.79086 14.2091 0 12 0H4ZM6 8C6 9.10457 6.89543 10 8 10C9.10457 10 10 9.10457 10 8C10 6.89543 9.10457 6 8 6C6.89543 6 6 6.89543 6 8ZM8 4C5.79086 4 4 5.79086 4 8C4 10.2091 5.79086 12 8 12C10.2091 12 12 10.2091 12 8C12 5.79086 10.2091 4 8 4ZM12 5C12.5523 5 13 4.55228 13 4C13 3.44772 12.5523 3 12 3C11.4477 3 11 3.44772 11 4C11 4.55228 11.4477 5 12 5Z" fill="#242424"/>
      </g>
   </symbol>
   <symbol id="list" viewBox="0 0 16 16">
      <g clip-path="url(#clip0_0_1087)">
         <path fill-rule="evenodd" clip-rule="evenodd" d="M2 0C0.895431 0 0 0.895431 0 2C0 3.10457 0.895431 4 2 4C3.10457 4 4 3.10457 4 2C4 0.895431 3.10457 0 2 0ZM2 6C0.895431 6 0 6.89543 0 8C0 9.10457 0.895431 10 2 10C3.10457 10 4 9.10457 4 8C4 6.89543 3.10457 6 2 6ZM0 14C0 12.8954 0.895431 12 2 12C3.10457 12 4 12.8954 4 14C4 15.1046 3.10457 16 2 16C0.895431 16 0 15.1046 0 14ZM7 1C6.44772 1 6 1.44772 6 2C6 2.55228 6.44772 3 7 3H15C15.5523 3 16 2.55228 16 2C16 1.44772 15.5523 1 15 1H7ZM6 8C6 7.44772 6.44772 7 7 7H15C15.5523 7 16 7.44772 16 8C16 8.55229 15.5523 9 15 9H7C6.44772 9 6 8.55229 6 8ZM7 13C6.44772 13 6 13.4477 6 14C6 14.5523 6.44772 15 7 15H15C15.5523 15 16 14.5523 16 14C16 13.4477 15.5523 13 15 13H7Z" fill="#242424"/>
      </g>
   </symbol>
   <symbol id="login" viewBox="0 0 16 16">
      <g clip-path="url(#clip0_0_264)">
         <path fill-rule="evenodd" clip-rule="evenodd" d="M9 2H14V14H9V16H15H16V15V1V0H15H9V2ZM4.29289 3.70711L7.53553 6.94975H0V8.94975H7.53553L4.29289 12.1924L5.70711 13.6066L10.6569 8.65685L11.364 7.94975L10.6569 7.24264L5.70711 2.29289L4.29289 3.70711Z"/>
      </g>
   </symbol>
   <symbol id="logout" viewBox="0 0 16 16">
      <g clip-path="url(#clip0_0_506)">
         <path fill-rule="evenodd" clip-rule="evenodd" d="M7 14L2 14L2 2L7 2L7 -7.86805e-07L1 -1.31134e-06L1.39876e-06 -1.39876e-06L1.31134e-06 0.999999L8.74228e-08 15L0 16L1 16L7 16L7 14ZM11.7071 12.2929L8.46447 9.05025L16 9.05025L16 7.05025L8.46447 7.05025L11.7071 3.80761L10.2929 2.3934L5.34315 7.34314L4.63604 8.05025L5.34315 8.75736L10.2929 13.7071L11.7071 12.2929Z" fill="#242424"/>
      </g>
   </symbol>
   <symbol id="minus" viewBox="0 0 16 16">
      <g>
         <rect y="7" width="16" height="2" fill="#242424"/>
      </g>
   </symbol>
   <symbol id="padlock" viewBox="0 0 16 16">
      <g>
         <path fill-rule="evenodd" clip-rule="evenodd" d="M8 1C5.79086 1 4 2.79086 4 5V8H2V16H14V8H12V5C12 2.79086 10.2091 1 8 1ZM10 8V5C10 3.89543 9.10457 3 8 3C6.89543 3 6 3.89543 6 5V8H10Z" fill="#242424"/>
      </g>
   </symbol>
   <symbol id="plus" viewBox="0 0 16 16">
      <g clip-path="url(#clip0_0_816)">
         <path fill-rule="evenodd" clip-rule="evenodd" d="M9 7V0H7L7 7H0V9H7L7 16H9V9H16V7H9Z" fill="#242424"/>
      </g>
   </symbol>
   <symbol id="profile" viewBox="0 0 16 16">
      <g>
         <path fill-rule="evenodd" clip-rule="evenodd" d="M8 8C9.65685 8 11 6.65685 11 5C11 3.34315 9.65685 2 8 2C6.34315 2 5 3.34315 5 5C5 6.65685 6.34315 8 8 8ZM8 10C4.68629 10 2 12.6863 2 16H14C14 12.6863 11.3137 10 8 10Z" fill="#242424"/>
      </g>
   </symbol>
   <symbol id="resize" viewBox="0 0 16 16">
      <g>
         <path d="M13.5 3L3 13.5" stroke="black" stroke-width="2"/>
         <path d="M14.5 9L9 14.5" stroke="black" stroke-width="2"/>
      </g>
   </symbol>
   <symbol id="search" viewBox="0 0 16 16">
      <g clip-path="url(#clip0_0_267)">
         <path fill-rule="evenodd" clip-rule="evenodd" d="M11 6.5C11 8.98528 8.98528 11 6.5 11C4.01472 11 2 8.98528 2 6.5C2 4.01472 4.01472 2 6.5 2C8.98528 2 11 4.01472 11 6.5ZM10.3347 11.7489C9.25973 12.5356 7.9341 13 6.5 13C2.91015 13 0 10.0899 0 6.5C0 2.91015 2.91015 0 6.5 0C10.0899 0 13 2.91015 13 6.5C13 7.9341 12.5356 9.25973 11.7489 10.3347L15.7071 14.2929L14.2929 15.7071L10.3347 11.7489Z"/>
      </g>
   </symbol>
   <symbol id="spinner" viewBox="0 0 16 16">
      <g clip-path="url(#clip0_0_1301)">
         <circle opacity="0.24" cx="8" cy="8" r="7" stroke="#242424" stroke-width="2" stroke-linecap="round"/>
         <path d="M15 8C15 4.13401 11.866 1 8 1" stroke="#242424" stroke-width="2" stroke-linecap="round"/>
      </g>
   </symbol>
   <symbol id="trash" viewBox="0 0 16 16">
      <g clip-path="url(#clip0_0_556)">
         <path fill-rule="evenodd" clip-rule="evenodd" d="M3.41965 1L3.70316 0.503861L3.99108 0H4.5714H11.4285H12.0089L12.2968 0.503861L12.5803 1H14.5H15.6286L15.4927 2.12042L13.9158 15.1204L13.8091 16H12.923H3.07689H2.19087L2.08417 15.1204L0.507247 2.12042L0.371338 1H1.49997H3.41965ZM3.96292 14L2.6286 3H13.3713L12.037 14H3.96292ZM9.00251 4.92875L8.50251 11.9288L10.4974 12.0712L10.9974 5.07125L9.00251 4.92875ZM5.50251 12.0712L5.00251 5.07125L6.99743 4.92875L7.49743 11.9288L5.50251 12.0712Z" fill="#242424"/>
      </g>
   </symbol>
   <symbol id="twitter" viewBox="0 0 16 16">
      <g>
         <path d="M15.5185 2.50029C15.269 2.61093 15.0126 2.7043 14.7505 2.78011C15.0608 2.42925 15.2973 2.01641 15.4417 1.56465C15.474 1.46339 15.4405 1.35255 15.3573 1.28632C15.2741 1.22004 15.1586 1.2121 15.0671 1.26635C14.5106 1.59641 13.9102 1.83361 13.2806 1.97231C12.6465 1.35265 11.7852 1 10.8948 1C9.01523 1 7.4861 2.52908 7.4861 4.40855C7.4861 4.55658 7.49548 4.70379 7.51402 4.84894C5.1817 4.64416 3.0134 3.49781 1.52443 1.67134C1.47136 1.60624 1.38962 1.57116 1.30592 1.57787C1.22218 1.58442 1.14693 1.63165 1.10463 1.70423C0.802632 2.22242 0.642978 2.81509 0.642978 3.41811C0.642978 4.23942 0.936214 5.01869 1.4542 5.62759C1.2967 5.57304 1.14386 5.50487 0.997986 5.42389C0.91967 5.3803 0.824093 5.38097 0.74629 5.42558C0.668435 5.47019 0.619622 5.55225 0.617573 5.64193C0.617215 5.65704 0.617215 5.67215 0.617215 5.68747C0.617215 6.91343 1.27703 8.01717 2.28582 8.61875C2.19915 8.6101 2.11254 8.59755 2.02649 8.5811C1.93777 8.56415 1.84655 8.59524 1.78673 8.6629C1.7268 8.73051 1.70698 8.82476 1.73458 8.91081C2.10798 10.0766 3.06933 10.9341 4.23152 11.1955C3.26761 11.7992 2.16529 12.1155 1.00813 12.1155C0.766675 12.1155 0.52384 12.1013 0.286178 12.0731C0.168116 12.0591 0.0552263 12.1288 0.0150184 12.2411C-0.0251895 12.3534 0.0174257 12.4787 0.117869 12.543C1.60443 13.4962 3.32333 14 5.08864 14C8.55901 14 10.73 12.3635 11.9401 10.9907C13.449 9.27883 14.3144 7.013 14.3144 4.77421C14.3144 4.68068 14.313 4.58624 14.3101 4.49209C14.9055 4.04356 15.418 3.50072 15.8351 2.87681C15.8985 2.78205 15.8916 2.65682 15.8182 2.56959C15.7449 2.48231 15.6227 2.45409 15.5185 2.50029Z" fill="#242424"/>
      </g>
   </symbol>
   <symbol id="vk" viewBox="0 0 16 16">
      <g>
         <path d="M15.9151 12.027C15.8955 11.9805 15.8775 11.943 15.8612 11.9126C15.5836 11.3653 15.0529 10.6929 14.2692 9.89534L14.2529 9.87746L14.2447 9.86852L14.2365 9.85958H14.2284C13.8724 9.4876 13.6471 9.23903 13.554 9.11206C13.3809 8.86885 13.3434 8.62206 13.4365 8.37348C13.5034 8.18571 13.7532 7.78691 14.1859 7.17888C14.4145 6.85699 14.5941 6.59768 14.728 6.40275C15.6897 5.00429 16.1061 4.11013 15.9771 3.72027L15.9281 3.62907C15.8955 3.57363 15.8089 3.52356 15.6701 3.47885C15.5314 3.43235 15.3534 3.4252 15.1362 3.4556L12.7376 3.47349C12.6984 3.45918 12.6429 3.45918 12.5711 3.47885C12.4992 3.49673 12.4633 3.50568 12.4633 3.50568L12.4208 3.52892L12.3882 3.55575C12.3604 3.57363 12.3294 3.60582 12.2967 3.65232C12.2641 3.69703 12.2363 3.75068 12.2135 3.81148C11.9522 4.54827 11.6551 5.2314 11.322 5.86447C11.1162 6.2418 10.9284 6.56907 10.7554 6.84626C10.5839 7.12345 10.4386 7.32731 10.3227 7.45786C10.2067 7.58841 10.1006 7.69392 10.0059 7.77261C9.9112 7.85129 9.83936 7.88527 9.78874 7.87275C9.73812 7.86023 9.69077 7.84772 9.64669 7.83699C9.56831 7.78155 9.50626 7.70823 9.45891 7.61345C9.41156 7.51866 9.3789 7.40064 9.36258 7.25757C9.34625 7.1145 9.33645 6.99111 9.33319 6.88739C9.32992 6.78367 9.33155 6.63702 9.33808 6.44925C9.34461 6.26148 9.34625 6.13272 9.34625 6.06655C9.34625 5.83586 9.35115 5.5837 9.35931 5.31367C9.36747 5.04363 9.37401 4.82903 9.38054 4.66987C9.38544 4.5125 9.3887 4.3444 9.3887 4.16735C9.3887 3.99031 9.3789 3.85261 9.35931 3.75246C9.33972 3.65232 9.31033 3.55396 9.27277 3.46097C9.23358 3.36619 9.17643 3.29287 9.10133 3.24279C9.02622 3.19093 8.93315 3.1498 8.82211 3.1194C8.52821 3.04608 8.15266 3.00673 7.6971 3.00137C6.66353 2.98885 6.0006 3.06217 5.7067 3.22133C5.59077 3.2875 5.48463 3.3787 5.38993 3.49495C5.29033 3.62907 5.27563 3.70239 5.34748 3.71312C5.68057 3.76856 5.91733 3.89911 6.05612 4.10476L6.10674 4.21385C6.14593 4.29254 6.18511 4.43381 6.22267 4.63411C6.26186 4.8344 6.28635 5.05615 6.29778 5.29936C6.32553 5.74286 6.32553 6.12378 6.29778 6.44031C6.27002 6.75684 6.24389 7.00363 6.2194 7.17888C6.19491 7.35593 6.15735 7.49899 6.10674 7.60808C6.05612 7.71717 6.02346 7.78512 6.00714 7.80837C5.99081 7.83341 5.97611 7.84772 5.96631 7.85308C5.89447 7.88348 5.81936 7.89958 5.74099 7.89958C5.66261 7.89958 5.56954 7.85666 5.45851 7.77261C5.34748 7.68677 5.23155 7.57053 5.11235 7.4221C4.99316 7.27366 4.85763 7.06443 4.70741 6.79618C4.55719 6.52794 4.40208 6.2114 4.24043 5.84659L4.10654 5.58191C4.02326 5.41202 3.90896 5.16345 3.76528 4.83797C3.62159 4.5125 3.4926 4.19776 3.38156 3.89374C3.33748 3.76677 3.27053 3.66841 3.18236 3.60224L3.13991 3.57542C3.11215 3.55038 3.06806 3.52535 3.00602 3.49852C2.9456 3.4717 2.88029 3.45203 2.81498 3.43951L0.532298 3.45739C0.298806 3.45739 0.140422 3.51462 0.0571486 3.63086L0.0244923 3.6863C0.00816409 3.7167 0 3.76498 0 3.83294C0 3.89911 0.0163282 3.98137 0.0506173 4.07973C0.383712 4.93812 0.746198 5.76432 1.13807 6.56191C1.52995 7.3595 1.86958 8.00151 2.15858 8.48793C2.44759 8.97436 2.7415 9.43395 3.04194 9.86494C3.34238 10.2977 3.53995 10.5731 3.63792 10.6947C3.73589 10.8163 3.811 10.9075 3.86651 10.9683L4.07551 11.1865C4.2094 11.3332 4.40534 11.5066 4.66333 11.7105C4.92131 11.9144 5.20705 12.1146 5.52219 12.3132C5.83569 12.5099 6.20144 12.6726 6.61781 12.796C7.03418 12.9212 7.43912 12.9713 7.83426 12.9462H8.79272C8.98703 12.9283 9.13398 12.8604 9.23358 12.7459L9.26624 12.6994C9.2891 12.6637 9.30869 12.6064 9.32829 12.5313C9.34788 12.4544 9.35768 12.3722 9.35768 12.281C9.35278 12.0199 9.37074 11.7838 9.41156 11.5746C9.45238 11.3653 9.49973 11.2062 9.55362 11.1007C9.60587 10.9934 9.66628 10.904 9.73323 10.8324C9.80017 10.7591 9.84752 10.7144 9.87528 10.7001C9.90304 10.684 9.92426 10.675 9.94223 10.6679C10.0761 10.6196 10.2329 10.6661 10.4125 10.8092C10.5937 10.9522 10.7619 11.1293 10.9203 11.3385C11.0787 11.5477 11.2681 11.7838 11.4901 12.0449C11.7122 12.306 11.9065 12.5009 12.0731 12.6297L12.2396 12.7388C12.3506 12.8121 12.496 12.8783 12.6723 12.9391C12.8503 12.9999 13.0054 13.016 13.1393 12.9838L15.2717 12.948C15.4824 12.948 15.6473 12.9104 15.7632 12.8336C15.8792 12.7567 15.9494 12.6744 15.9722 12.5832C15.9951 12.492 15.9951 12.3883 15.9771 12.272C15.9543 12.154 15.9347 12.0717 15.9151 12.027Z" fill="#242424"/>
      </g>
   </symbol>
</svg>